<svg xmlns="http://www.w3.org/2000/svg" viewBox="0 0 64 64" fill="none" role="img" aria-hidden="true">
  <circle cx="32" cy="32" r="32" fill="#F5EEE3"/>
  <path d="M12 3l1.2 3.6L17 7.8l-3.6 1.2L12 12.6 10.6 9l-3.6-1.2 3.8-1.2L12 3z" fill="#D9A79E" transform="translate(8,6) scale(1.1)"/>
  <path d="M18 28c0-5.52 4.48-10 10-10s10 4.48 10 10v3c0 1.1-.9 2-2 2h-2.1l-2.9 4.35a1.25 1.25 0 0 1-2.07 0L26.1 33H20c-1.1 0-2-.9-2-2v-3z" fill="#4A2F26"/>
  <circle cx="26" cy="31" r="1.5" fill="#F5EEE3"/>
  <circle cx="32" cy="31" r="1.5" fill="#F5EEE3"/>
  <circle cx="38" cy="31" r="1.5" fill="#F5EEE3"/>
</svg>
